%TF.GenerationSoftware,KiCad,Pcbnew,8.0.7+1*%
%TF.CreationDate,2025-02-06T19:29:55-05:00*%
%TF.ProjectId,jetKVM-audio-expansion,6a65744b-564d-42d6-9175-64696f2d6578,rev?*%
%TF.SameCoordinates,Original*%
%TF.FileFunction,Plated,1,2,PTH,Drill*%
%TF.FilePolarity,Positive*%
%FSLAX46Y46*%
G04 Gerber Fmt 4.6, Leading zero omitted, Abs format (unit mm)*
G04 Created by KiCad (PCBNEW 8.0.7+1) date 2025-02-06 19:29:55*
%MOMM*%
%LPD*%
G01*
G04 APERTURE LIST*
%TA.AperFunction,ViaDrill*%
%ADD10C,0.304800*%
%TD*%
%TA.AperFunction,ComponentDrill*%
%ADD11C,0.900000*%
%TD*%
%TA.AperFunction,ComponentDrill*%
%ADD12C,1.000000*%
%TD*%
%TA.AperFunction,ComponentDrill*%
%ADD13C,1.020000*%
%TD*%
%TA.AperFunction,ComponentDrill*%
%ADD14C,1.500000*%
%TD*%
G04 APERTURE END LIST*
D10*
X105156000Y-73152000D03*
X106273600Y-93319600D03*
X107238800Y-103581200D03*
X108508800Y-82346800D03*
X108712000Y-93472000D03*
X109067600Y-98196400D03*
X109474000Y-86258400D03*
X112141000Y-75946000D03*
X113385600Y-86258400D03*
X113538000Y-97028000D03*
X113588800Y-105460800D03*
X113690400Y-99415600D03*
X115443000Y-91059000D03*
X115824000Y-82550000D03*
X116967000Y-72898000D03*
X116992400Y-104902000D03*
X117109000Y-87417000D03*
X117500400Y-100025200D03*
X117554400Y-109131172D03*
X117602000Y-77851000D03*
X117729000Y-93853000D03*
X118008400Y-92252800D03*
X118264228Y-107870600D03*
X118922257Y-109143257D03*
X119169174Y-107977192D03*
X120802400Y-88864401D03*
X122072328Y-81940328D03*
X122770900Y-121881900D03*
X123037672Y-82905672D03*
X123393200Y-111607600D03*
X123748800Y-116890800D03*
X126796800Y-119989600D03*
X128016000Y-101600000D03*
X130429000Y-77978000D03*
X131191000Y-85979000D03*
X131572000Y-87249000D03*
X131673600Y-110540800D03*
X131724400Y-102565200D03*
X131778400Y-84328000D03*
X132207000Y-77978000D03*
X132486400Y-93624400D03*
X132892800Y-73660000D03*
X133096000Y-113182400D03*
X133096000Y-115519200D03*
X133604000Y-87249000D03*
X133985000Y-84328000D03*
X133985000Y-85979000D03*
X135077200Y-102108000D03*
X136144000Y-91236800D03*
X136194800Y-73863200D03*
X136550400Y-95046800D03*
X136550400Y-110083600D03*
X136702800Y-122580400D03*
X137004673Y-73445600D03*
X137363200Y-101295200D03*
X144170400Y-123444000D03*
D11*
%TO.C,J1*%
X126228000Y-83072000D03*
X127248000Y-80532000D03*
X128268000Y-83072000D03*
X129288000Y-80532000D03*
X130308000Y-83072000D03*
X131328000Y-80532000D03*
D12*
%TO.C,TP2*%
X105664000Y-86614000D03*
%TO.C,TP7*%
X105664000Y-91084400D03*
%TO.C,TP10*%
X107442000Y-118364000D03*
%TO.C,R2*%
X108752000Y-108752000D03*
X108752000Y-111252000D03*
X108752000Y-113752000D03*
%TO.C,TP6*%
X109575600Y-91236800D03*
%TO.C,TP18*%
X109855000Y-100076000D03*
%TO.C,R2*%
X111252000Y-108752000D03*
X111252000Y-111252000D03*
X111252000Y-113752000D03*
%TO.C,TP11*%
X112522000Y-118364000D03*
%TO.C,TP19*%
X113334800Y-92252800D03*
%TO.C,TP1*%
X116586000Y-122428000D03*
%TO.C,TP13*%
X117856000Y-116332000D03*
%TO.C,TP8*%
X118872000Y-74168000D03*
%TO.C,TP12*%
X122174000Y-97790000D03*
%TO.C,TP15*%
X126034800Y-97790000D03*
%TO.C,TP17*%
X128016000Y-115570000D03*
%TO.C,TP16*%
X130429000Y-121285000D03*
%TO.C,TP14*%
X132588000Y-89611200D03*
D13*
%TO.C,U3*%
X142240000Y-74930000D03*
X142240000Y-77470000D03*
X142240000Y-80010000D03*
X142240000Y-82550000D03*
X142240000Y-85090000D03*
X142240000Y-87630000D03*
X142240000Y-90170000D03*
X142240000Y-92710000D03*
X142240000Y-95250000D03*
X142240000Y-97790000D03*
X142240000Y-100330000D03*
X142240000Y-102870000D03*
X142240000Y-105410000D03*
X142240000Y-107950000D03*
X142240000Y-110490000D03*
X142240000Y-113030000D03*
X142240000Y-115570000D03*
X142240000Y-118110000D03*
X142240000Y-120650000D03*
X142240000Y-123190000D03*
X148590000Y-75160000D03*
X151130000Y-75160000D03*
X153670000Y-75160000D03*
X160020000Y-74930000D03*
X160020000Y-77470000D03*
X160020000Y-80010000D03*
X160020000Y-82550000D03*
X160020000Y-85090000D03*
X160020000Y-87630000D03*
X160020000Y-90170000D03*
X160020000Y-92710000D03*
X160020000Y-95250000D03*
X160020000Y-97790000D03*
X160020000Y-100330000D03*
X160020000Y-102870000D03*
X160020000Y-105410000D03*
X160020000Y-107950000D03*
X160020000Y-110490000D03*
X160020000Y-113030000D03*
X160020000Y-115570000D03*
X160020000Y-118110000D03*
X160020000Y-120650000D03*
X160020000Y-123190000D03*
D14*
%TO.C,J2*%
X105276000Y-80176000D03*
X107776000Y-80176000D03*
X110276000Y-75176000D03*
X112776000Y-80176000D03*
X115276000Y-80176000D03*
M02*
