%TF.GenerationSoftware,KiCad,Pcbnew,8.0.7+1*%
%TF.CreationDate,2025-02-06T19:29:56-05:00*%
%TF.ProjectId,jetKVM-audio-expansion,6a65744b-564d-42d6-9175-64696f2d6578,rev?*%
%TF.SameCoordinates,Original*%
%TF.FileFunction,Soldermask,Bot*%
%TF.FilePolarity,Negative*%
%FSLAX46Y46*%
G04 Gerber Fmt 4.6, Leading zero omitted, Abs format (unit mm)*
G04 Created by KiCad (PCBNEW 8.0.7+1) date 2025-02-06 19:29:56*
%MOMM*%
%LPD*%
G01*
G04 APERTURE LIST*
%ADD10O,1.800000X1.800000*%
%ADD11O,1.500000X1.500000*%
%ADD12O,1.700000X1.700000*%
%ADD13R,1.700000X1.700000*%
%ADD14C,2.000000*%
%ADD15C,1.600000*%
%ADD16O,2.114000X3.020000*%
%ADD17C,2.300000*%
%ADD18R,1.520000X1.520000*%
%ADD19C,1.520000*%
%ADD20C,2.004000*%
G04 APERTURE END LIST*
D10*
%TO.C,U3*%
X153855000Y-123060000D03*
D11*
X153555000Y-120030000D03*
X148705000Y-120030000D03*
D10*
X148405000Y-123060000D03*
D12*
X160020000Y-123190000D03*
X160020000Y-120650000D03*
D13*
X160020000Y-118110000D03*
D12*
X160020000Y-115570000D03*
X160020000Y-113030000D03*
X160020000Y-110490000D03*
X160020000Y-107950000D03*
D13*
X160020000Y-105410000D03*
D12*
X160020000Y-102870000D03*
X160020000Y-100330000D03*
X160020000Y-97790000D03*
X160020000Y-95250000D03*
D13*
X160020000Y-92710000D03*
D12*
X160020000Y-90170000D03*
X160020000Y-87630000D03*
X160020000Y-85090000D03*
X160020000Y-82550000D03*
D13*
X160020000Y-80010000D03*
D12*
X160020000Y-77470000D03*
X160020000Y-74930000D03*
X142240000Y-74930000D03*
X142240000Y-77470000D03*
D13*
X142240000Y-80010000D03*
D12*
X142240000Y-82550000D03*
X142240000Y-85090000D03*
X142240000Y-87630000D03*
X142240000Y-90170000D03*
D13*
X142240000Y-92710000D03*
D12*
X142240000Y-95250000D03*
X142240000Y-97790000D03*
X142240000Y-100330000D03*
X142240000Y-102870000D03*
D13*
X142240000Y-105410000D03*
D12*
X142240000Y-107950000D03*
X142240000Y-110490000D03*
X142240000Y-113030000D03*
X142240000Y-115570000D03*
D13*
X142240000Y-118110000D03*
D12*
X142240000Y-120650000D03*
X142240000Y-123190000D03*
X153670000Y-75160000D03*
D13*
X151130000Y-75160000D03*
D12*
X148590000Y-75160000D03*
%TD*%
D14*
%TO.C,TP6*%
X109575600Y-91236800D03*
%TD*%
D15*
%TO.C,J2*%
X115276000Y-75176000D03*
X105276000Y-75176000D03*
X110276000Y-80176000D03*
D16*
X110276000Y-75176000D03*
X105276000Y-80176000D03*
X115276000Y-80176000D03*
X107776000Y-80176000D03*
X112776000Y-80176000D03*
%TD*%
D14*
%TO.C,TP8*%
X118872000Y-74168000D03*
%TD*%
%TO.C,TP1*%
X116586000Y-122428000D03*
%TD*%
D17*
%TO.C,J1*%
X134778000Y-78232000D03*
X122778000Y-78232000D03*
D18*
X126228000Y-83072000D03*
D19*
X127248000Y-80532000D03*
X128268000Y-83072000D03*
X129288000Y-80532000D03*
X130308000Y-83072000D03*
X131328000Y-80532000D03*
%TD*%
D14*
%TO.C,TP16*%
X130429000Y-121285000D03*
%TD*%
%TO.C,TP2*%
X105664000Y-86614000D03*
%TD*%
D20*
%TO.C,R2*%
X108752000Y-108752000D03*
X108752000Y-111252000D03*
X108752000Y-113752000D03*
X111252000Y-108752000D03*
X111252000Y-111252000D03*
X111252000Y-113752000D03*
%TD*%
D14*
%TO.C,TP19*%
X113334800Y-92252800D03*
%TD*%
%TO.C,TP10*%
X107442000Y-118364000D03*
%TD*%
%TO.C,TP7*%
X105664000Y-91084400D03*
%TD*%
%TO.C,TP15*%
X126034800Y-97790000D03*
%TD*%
%TO.C,TP13*%
X117856000Y-116332000D03*
%TD*%
%TO.C,TP18*%
X109855000Y-100076000D03*
%TD*%
%TO.C,TP11*%
X112522000Y-118364000D03*
%TD*%
%TO.C,TP14*%
X132588000Y-89611200D03*
%TD*%
%TO.C,TP12*%
X122174000Y-97790000D03*
%TD*%
%TO.C,TP17*%
X128016000Y-115570000D03*
%TD*%
M02*
